# xmcd CD database file
#
# Track frame offsets:
#	150
#	46330
#	82733
#	108651
#	203722
#	238478
#
# Disc length: 3775 seconds
#
# Revision: 1
# Processed by: cddbd v1.5.2PL0 Copyright (c) Steve Scherf et al.
# Submitted via: CDex 1.81
#
DISCID=4a0ebd06
DTITLE=John Coltrane - Afro Blue Impressions - Vol. 1
DYEAR=2013
DGENRE=Jazz
TTITLE0=Lonnie's Lament
TTITLE1=Naima
TTITLE2=Chasin' The Trane
TTITLE3=My Favorite Things
TTITLE4=Afro Blue
TTITLE5=Cousin Mary
EXTD=YEAR: 2013
EXTT0=
EXTT1=
EXTT2=
EXTT3=
EXTT4=
EXTT5=
PLAYORDER=
